<svg xmlns="http://www.w3.org/2000/svg" viewBox="0 0 32 32" width="32" height="32">
  <style>
    .stroke { stroke: #111827; stroke-width: 1.5; }
    .amber { fill: #F59E0B; }
    .bg { fill: #FFFFFF; }
  </style>

  <!-- Background -->
  <rect x="0" y="0" width="32" height="32" class="bg"/>
  <!-- Stronger amber tint -->
  <rect x="2" y="2" width="28" height="28" class="amber" opacity="0.28"/>

  <!-- Modern shopping cart icon -->
  <g transform="translate(4, 4)">
    <!-- Cart basket -->
    <path d="M3 8h16a1 1 0 0 1 1 1l-1.5 10a1 1 0 0 1-1 1H6.5a1 1 0 0 1-1-1L4 9a1 1 0 0 1 1-1z" class="stroke" fill="none" stroke-linejoin="round"/>
    <!-- Cart handle -->
    <path d="M1 4h3l1 4" class="stroke" fill="none" stroke-linecap="round" stroke-linejoin="round"/>
    <!-- Cart wheels -->
    <circle cx="8" cy="23" r="1.5" class="amber"/>
    <circle cx="16" cy="23" r="1.5" class="amber"/>
    <!-- Wheel spokes -->
    <path d="M8 22v2M7 23h2" class="stroke" stroke-width="0.5" stroke-linecap="round"/>
    <path d="M16 22v2M15 23h2" class="stroke" stroke-width="0.5" stroke-linecap="round"/>
    <!-- Accent -->
    <circle cx="20" cy="8" r="2" class="amber"/>
    <path d="M19.2 7.2l.8.8.8-.8-.8-.8-.8.8z" fill="white"/>
  </g>
</svg>

