<svg xmlns="http://www.w3.org/2000/svg" viewBox="0 0 32 32" width="32" height="32" role="img" aria-label="ACC Store logo">
  <style>
    :root { color-scheme: light dark; }
    /* Light mode colors */
    .stroke { stroke: #111827; }
    .muted { stroke: #6B7280; }
    .amber { fill: #F59E0B; }
    .amber-stroke { stroke: #F59E0B; }
    /* Dark mode overrides */
    @media (prefers-color-scheme: dark) {
      .stroke { stroke: #FFFFFF; }
      .muted { stroke: #9CA3AF; }
    }
  </style>
  <!-- Modern shopping cart -->
  <path d="M6 12h18a1 1 0 0 1 1 1l-2 12a1 1 0 0 1-1 1H10a1 1 0 0 1-1-1L7 13a1 1 0 0 1 1-1z" class="stroke" fill="none" stroke-width="1.8" stroke-linejoin="round"/>
  <!-- Cart handle -->
  <path d="M3 8h4l2 4" class="stroke" fill="none" stroke-width="1.6" stroke-linecap="round" stroke-linejoin="round"/>
  <!-- Cart wheels -->
  <circle cx="12" cy="28" r="1.8" class="amber"/>
  <circle cx="20" cy="28" r="1.8" class="amber"/>
  <!-- Wheel spokes -->
  <path d="M12 26.5v3M10.5 28h3" class="stroke" stroke-width="0.6" stroke-linecap="round"/>
  <path d="M20 26.5v3M18.5 28h3" class="stroke" stroke-width="0.6" stroke-linecap="round"/>
  <!-- Premium badge/accent -->
  <circle cx="24" cy="10" r="2.5" class="amber"/>
  <!-- Badge highlight -->
  <path d="M23.2 9.2l.8.8.8-.8-.8-.8-.8.8z" fill="white" opacity="0.9"/>
</svg>

